<svg width="24" height="26" viewBox="0 0 24 26" fill="none" xmlns="http://www.w3.org/2000/svg">
<path d="M11.8977 16.2295C15.2019 16.2295 17.8805 12.8203 17.8805 8.61476C17.8805 4.40925 15.2019 1 11.8977 1C8.59342 1 5.91479 4.40925 5.91479 8.61476C5.91479 12.8203 8.59342 16.2295 11.8977 16.2295Z" fill="#F4AA41"/>
<path d="M22.6071 24.8954C22.4628 24.8954 22.3245 24.8382 22.2225 24.7362C22.1204 24.6343 22.0631 24.496 22.0629 24.3518V22.7199C22.0629 20.2989 19.6154 17.9277 17.3577 17.8291C13.9825 20.5556 10.5639 20.5556 7.18661 17.8291C4.92626 17.9288 1.93668 20.2989 1.93668 22.7199V24.3518C1.93674 24.4232 1.92275 24.4939 1.8955 24.5599C1.86824 24.6259 1.82826 24.6858 1.77783 24.7364C1.7274 24.7869 1.66751 24.827 1.60159 24.8544C1.53566 24.8818 1.46498 24.8959 1.3936 24.896H1.39307" fill="#F4AA41"/>
<path d="M16.2963 3.88722H7.70574L6.13696 6.52412L6.61799 11.4829H17.3841L17.8922 6.67474L16.2963 3.88722Z" fill="#D0CFCE"/>
<path d="M11.8977 17.8582C13.3997 17.8582 14.6174 16.6406 14.6174 15.1386C14.6174 13.6366 13.3997 12.419 11.8977 12.419C10.3957 12.419 9.1781 13.6366 9.1781 15.1386C9.1781 16.6406 10.3957 17.8582 11.8977 17.8582Z" fill="#3F3F3F"/>
<path d="M11.8977 15.9543C12.3482 15.9543 12.7134 15.5891 12.7134 15.1386C12.7134 14.6881 12.3482 14.3229 11.8977 14.3229C11.4472 14.3229 11.082 14.6881 11.082 15.1386C11.082 15.5891 11.4472 15.9543 11.8977 15.9543Z" fill="#D0CFCE"/>
<path d="M10.994 11.5174L13.7046 11.564L15.9692 3.70902L13.2591 3.66235L10.994 11.5174Z" fill="white"/>
<path d="M17.4827 14.7481C18.0637 14.0557 18.1598 13.1798 17.6974 12.7918C17.2349 12.4038 16.389 12.6505 15.808 13.3429C15.227 14.0354 15.1309 14.9113 15.5933 15.2993C16.0557 15.6873 16.9016 15.4406 17.4827 14.7481Z" fill="#D22F27"/>
<path d="M8.15793 15.2993C8.62037 14.9113 8.52424 14.0354 7.94323 13.3429C7.36221 12.6505 6.51632 12.4037 6.05388 12.7918C5.59144 13.1798 5.68756 14.0557 6.26858 14.7481C6.84959 15.4406 7.69549 15.6873 8.15793 15.2993Z" fill="#D22F27"/>
<path d="M1.66675 24.3211V22.6892C1.66675 19.9727 4.39062 17.7941 7.10602 17.7941C10.3694 20.5137 13.6329 20.5137 16.8963 17.7941C19.6122 17.7941 22.335 19.9727 22.335 22.6892V24.3211" stroke="black" stroke-width="2" stroke-linecap="round" stroke-linejoin="round"/>
<path d="M7.70581 3.34361H16.2959" stroke="black" stroke-width="2" stroke-linecap="round" stroke-linejoin="round"/>
<path d="M6.61804 11.4829H17.3841" stroke="black" stroke-width="2" stroke-linecap="round" stroke-linejoin="round"/>
<path d="M7.10596 17.7941V24.3518" stroke="black" stroke-width="2" stroke-linecap="round" stroke-linejoin="round"/>
<path d="M11.8977 17.8582C13.3997 17.8582 14.6174 16.6406 14.6174 15.1386C14.6174 13.6366 13.3997 12.419 11.8977 12.419C10.3957 12.419 9.1781 13.6366 9.1781 15.1386C9.1781 16.6406 10.3957 17.8582 11.8977 17.8582Z" stroke="black" stroke-width="2" stroke-linecap="round" stroke-linejoin="round"/>
<path d="M17.4827 14.7481C18.0637 14.0557 18.1598 13.1798 17.6974 12.7918C17.2349 12.4038 16.389 12.6505 15.808 13.3429C15.227 14.0354 15.1309 14.9113 15.5933 15.2993C16.0557 15.6873 16.9016 15.4406 17.4827 14.7481Z" stroke="black" stroke-width="2" stroke-linecap="round" stroke-linejoin="round"/>
<path d="M8.15793 15.2993C8.62037 14.9113 8.52424 14.0354 7.94323 13.3429C7.36221 12.6505 6.51632 12.4037 6.05388 12.7918C5.59144 13.1798 5.68756 14.0557 6.26858 14.7481C6.84959 15.4406 7.69549 15.6873 8.15793 15.2993Z" stroke="black" stroke-width="2" stroke-linecap="round" stroke-linejoin="round"/>
<path d="M6.82969 12.5324C6.26113 11.3053 5.97186 9.96722 5.98272 8.61475C5.98272 6.82801 6.49981 4.60266 7.6146 3.17602C7.75527 2.99496 7.90782 2.82346 8.07123 2.66264C9.13296 1.68501 10.5223 1.14047 11.9656 1.13629H12.0001C13.4433 1.14047 14.8327 1.68501 15.8944 2.66264C16.0578 2.82346 16.2104 2.99496 16.3511 3.17602C17.4659 4.60266 17.9829 6.82801 17.9829 8.61475C17.9939 9.9658 17.7054 11.3025 17.1381 12.5287" stroke="black" stroke-width="2" stroke-linecap="round" stroke-linejoin="round"/>
<path d="M17.983 22.0756C18.5981 22.0756 19.0967 21.5769 19.0967 20.9618C19.0967 20.3467 18.5981 19.8481 17.983 19.8481C17.3679 19.8481 16.8693 20.3467 16.8693 20.9618C16.8693 21.5769 17.3679 22.0756 17.983 22.0756Z" fill="black"/>
</svg>
