<svg width="31" height="31" viewBox="0 0 31 31" fill="none" xmlns="http://www.w3.org/2000/svg">
<path d="M18.6484 13.3809L4.11719 13.3809C3.98398 13.3809 3.875 13.2719 3.875 13.1387V11.4434C3.875 11.3102 3.98398 11.2012 4.11719 11.2012L18.6484 11.2012C18.7816 11.2012 18.8906 11.3102 18.8906 11.4434V13.1387C18.8906 13.2719 18.7816 13.3809 18.6484 13.3809ZM18.8906 19.5566C18.8906 19.6898 18.7816 19.7988 18.6484 19.7988L4.11719 19.7988C3.98398 19.7988 3.875 19.6898 3.875 19.5566L3.875 17.8613C3.875 17.7281 3.98398 17.6191 4.11719 17.6191L18.6484 17.6191C18.7816 17.6191 18.8906 17.7281 18.8906 17.8613V19.5566ZM3.63281 4.84375L27.3672 4.84375C27.5004 4.84375 27.6094 4.95273 27.6094 5.08594V6.78125C27.6094 6.91445 27.5004 7.02344 27.3672 7.02344L3.63281 7.02344C3.49961 7.02344 3.39062 6.91445 3.39062 6.78125V5.08594C3.39062 4.95273 3.49961 4.84375 3.63281 4.84375ZM3.63281 23.9766L27.3672 23.9766C27.5004 23.9766 27.6094 24.0855 27.6094 24.2188V25.9141C27.6094 26.0473 27.5004 26.1562 27.3672 26.1562L3.63281 26.1562C3.49961 26.1562 3.39062 26.0473 3.39062 25.9141V24.2187C3.39062 24.0855 3.49961 23.9766 3.63281 23.9766ZM27.5064 15.7089L22.7747 19.4355C22.5991 19.5748 22.3388 19.4507 22.3388 19.2267V11.7733C22.3388 11.5493 22.5961 11.4252 22.7747 11.5645L27.5064 15.2911C27.5383 15.3158 27.564 15.3475 27.5817 15.3837C27.5994 15.4199 27.6086 15.4597 27.6086 15.5C27.6086 15.5403 27.5994 15.5801 27.5817 15.6163C27.564 15.6525 27.5383 15.6842 27.5064 15.7089Z" fill="black"/>
</svg>
